# xmcd
# 
# Track frame offsets:
#   150
#   17040
#   34520
#   47777
#   61952
#   80240
#   95842
#   113004
#   129985
#   149176
#   168105
#   181499
#   195162
#   211121
#   229213
# 
# Disc length: 3241 seconds
# 
# Revision: 1
# Processed by: cddbd v1.5.2PL0 Copyright (c) Steve Scherf et al.
# Submitted via: Synapstar 1.0 
# 
DISCID=cd0ca70f
DTITLE=Various Artist - Unknown
DYEAR=1900
DGENRE=Country
TTITLE0=Tim McGraw - When The Stars Go Blue
TTITLE1=Willie Nelson - You Don't Know Me
TTITLE2=Merle Haggard - America First
TTITLE3=Jake Owen - Yee Haw
TTITLE4=Eric Church - How 'bout You
TTITLE5=Jo Dee Messina - Not Going Down
TTITLE6=Jack Ingram - Wherever You Are
TTITLE7=Willie Nelson - Cowboys Are Frequently Secretly Fond For Each Other
TTITLE8=Little Big Town - Bring It on Home
TTITLE9=Dixie Chicks - Not Ready to Make Nice
TTITLE10=Billy Currington - Why Why Why
TTITLE11=Ashley Monroe - Satisfied
TTITLE12=The Grascals and Dolly Parton - Viva Las Vegas
TTITLE13=Trisha Yearwoond - Trying to Love You
TTITLE14=Sugarland - Down in Mississippi Up to No Good
EXTD=
EXTT0=
EXTT1=
EXTT2=
EXTT3=
EXTT4=
EXTT5=
EXTT6=
EXTT7=
EXTT8=
EXTT9=
EXTT10=
EXTT11=
EXTT12=
EXTT13=
EXTT14=
PLAYORDER=
